<svg width="219" height="86" viewBox="0 0 219 86" fill="none" xmlns="http://www.w3.org/2000/svg">
  <g filter="url(#filter0_d_241_956)">
    <rect x="21" y="39" width="31.1127" height="31.1127" rx="3" transform="rotate(-45 21 39)" fill="#fff"/>
  </g>
  <circle cx="43.0492" cy="38.9999" r="12.5995" fill="#1E2125"/>
  <rect x="35.1743" y="31.1255" width="15.8614" height="15.8614" rx="3" fill="#fff"/>
  <circle cx="43.0276" cy="38.9783" r="5.49048" fill="#1E2125"/>
  <rect width="3.55887" height="3.55887" rx="1" transform="rotate(-45.00209 67.417945 -29.610417)" fill="#fff"/>
  <path d="M88.4 49.76V55h-2.46V41c.6933 0 1.4467-.0067 2.26-.02.8133-.0133 1.48-.02 2-.02 3.3867 0 5.08 1.44 5.08 4.32 0 1.0667-.2733 1.9467-.82 2.64-.5467.6667-1.1733 1.12-1.88 1.36L96.96 55h-2.98l-3.86-5.24H88.4Zm1.68-6.5c-.0667 0-.1733.0067-.32.02-.1467 0-.3533.0067-.62.02h-.74v4.16H90c.7867 0 1.4267-.1933 1.92-.58.5067-.3867.76-.9133.76-1.58 0-1.36-.8667-2.04-2.6-2.04Zm14.604 9.22.66 1.62c-.894.7467-2.04 1.12-3.44 1.12-1.44 0-2.6136-.4333-3.5202-1.3-.88-.8533-1.32-1.9933-1.32-3.42 0-1.3333.4333-2.4533 1.3-3.36.8666-.9067 2.0202-1.36 3.4602-1.36 1.186 0 2.193.3933 3.02 1.18.826.7867 1.24 1.7867 1.24 3 0 .5333-.047.9467-.14 1.24h-6.5002c.0933.6533.38 1.1667.8602 1.54.493.3733 1.106.56 1.84.56 1 0 1.846-.2733 2.54-.82Zm-2.96-4.78c-1.307 0-2.0936.6533-2.3602 1.96h4.4202c.013-.5733-.174-1.04-.56-1.4-.374-.3733-.874-.56-1.5-.56ZM116.518 59h-2.3v-4.46c-.694.4533-1.434.68-2.22.68-1.427 0-2.567-.4267-3.42-1.28-.84-.8667-1.26-2.0133-1.26-3.44 0-1.3467.486-2.4667 1.46-3.36.986-.9067 2.22-1.36 3.7-1.36 1.546 0 2.893.36 4.04 1.08V59Zm-4.22-5.92c.773 0 1.413-.2733 1.92-.82v-3.88c-.6-.2933-1.187-.44-1.76-.44-.827 0-1.48.2533-1.96.76-.48.4933-.72 1.1267-.72 1.9 0 .72.226 1.3133.68 1.78.466.4667 1.08.7 1.84.7ZM124.89 46h2.3v9h-2.3v-1.1c-.72.88-1.68 1.32-2.88 1.32-.96 0-1.727-.32-2.3-.96-.574-.64-.86-1.56-.86-2.76V46h2.3v5.02c0 1.3733.573 2.06 1.72 2.06.786 0 1.46-.3667 2.02-1.1V46Zm11.923 6.48.66 1.62c-.894.7467-2.04 1.12-3.44 1.12-1.44 0-2.614-.4333-3.52-1.3-.88-.8533-1.32-1.9933-1.32-3.42 0-1.3333.433-2.4533 1.3-3.36.866-.9067 2.02-1.36 3.46-1.36 1.186 0 2.193.3933 3.02 1.18.826.7867 1.24 1.7867 1.24 3 0 .5333-.047.9467-.14 1.24h-6.5c.093.6533.38 1.1667.86 1.54.493.3733 1.106.56 1.84.56 1 0 1.846-.2733 2.54-.82Zm-2.96-4.78c-1.307 0-2.094.6533-2.36 1.96h4.42c.013-.5733-.174-1.04-.56-1.4-.374-.3733-.874-.56-1.5-.56Zm5.912.82c0-.84.307-1.5067.92-2 .613-.4933 1.407-.74 2.38-.74 1.467 0 2.607.38 3.42 1.14l-.86 1.64c-.733-.5733-1.547-.86-2.44-.86-.32 0-.587.08-.8.24-.213.1467-.32.3267-.32.54 0 .44.567.8067 1.7 1.1.413.0933.78.2 1.1.32.32.1067.647.2667.98.48.347.2.613.4667.8.8.187.3333.28.72.28 1.16 0 .88-.333 1.58-1 2.1-.653.52-1.533.78-2.64.78-.787 0-1.553-.1667-2.3-.5-.76-.3467-1.247-.6933-1.46-1.04l1.12-1.5c.253.3067.673.5667 1.26.78.6.2267 1.113.34 1.54.34.52.0533.887-.1133 1.1-.5.213-.4.073-.7267-.42-.98-.2-.1067-.513-.22-.94-.34-.413-.12-.8-.24-1.16-.36-.347-.1333-.707-.3-1.08-.5-.36-.2-.647-.4733-.86-.82-.213-.36-.32-.7867-.32-1.28Zm8.987 3.06V43.5h2.3V46h2.9v2.16h-2.9v3.28c0 1.08.36 1.62 1.08 1.62.453 0 .913-.1733 1.38-.52l.7 1.78c-.733.5867-1.62.88-2.66.88-.973 0-1.687-.2933-2.14-.88-.44-.6-.66-1.5133-.66-2.74ZM161.771 55h-.18V41h.22c.573 0 1.107-.0067 1.6-.02.987-.0267 1.573-.04 1.76-.04 1.347 0 2.533.1867 3.56.56 1.04.36 1.867.8667 2.48 1.52.613.64 1.067 1.3667 1.36 2.18.307.8.46 1.6667.46 2.6 0 2.1067-.7 3.84-2.1 5.2-1.387 1.36-3.36 2.04-5.92 2.04-.573 0-1.1-.0067-1.58-.02s-1.033-.02-1.66-.02Zm3.36-13.02c-.293 0-.727.0133-1.3.04-.56.0133-.94.02-1.14.02v11.92c.44 0 .853.0067 1.24.02.387 0 .667.0067.84.02h.28c2.173 0 3.853-.5733 5.04-1.72 1.187-1.16 1.78-2.6533 1.78-4.48 0-1.72-.567-3.12-1.7-4.2-1.147-1.08-2.827-1.62-5.04-1.62ZM182.72 53.1l.34.8c-.814.8533-1.92 1.28-3.32 1.28-1.44 0-2.594-.4267-3.46-1.28-.88-.8533-1.32-1.9867-1.32-3.4 0-1.36.4-2.48 1.2-3.36.813-.88 1.933-1.32 3.36-1.32 1.16 0 2.133.3733 2.92 1.12.773.7333 1.16 1.7133 1.16 2.94 0 .32-.02.6-.06.84h-7.42c.04 1.08.393 1.9333 1.06 2.56.666.6133 1.54.92 2.62.92 1.253 0 2.226-.3667 2.92-1.1Zm-3.3-6.3c-.96 0-1.74.28-2.34.84-.587.56-.927 1.3-1.02 2.22h6.48c-.014-.9467-.3-1.6933-.86-2.24-.56-.5467-1.314-.82-2.26-.82Zm11.328 5.84c0-.4133-.174-.7467-.52-1-.334-.2533-.747-.4533-1.24-.6-.48-.1467-.967-.3067-1.46-.48-.494-.1867-.914-.4733-1.26-.86-.334-.4-.5-.9-.5-1.5 0-.72.266-1.2933.8-1.72.533-.44 1.233-.66 2.1-.66 1.24 0 2.18.3333 2.82 1l-.44.78c-.614-.5733-1.4-.86-2.36-.86-.534 0-.974.14-1.32.42-.334.2667-.5.6067-.5 1.02 0 .4267.166.78.5 1.06.346.2667.76.48 1.24.64.493.1467.986.3067 1.48.48.493.1733.906.4467 1.24.82.346.3733.52.8467.52 1.42 0 .8133-.307 1.4467-.92 1.9-.6.4533-1.374.68-2.32.68-.587 0-1.2-.1333-1.84-.4-.6-.2533-1.014-.5533-1.24-.9l.58-.68c.253.3067.633.56 1.14.76.52.2 1.013.3 1.48.3.586 0 1.066-.14 1.44-.42.386-.2933.58-.6933.58-1.2Zm5.239 2.36h-1.04v-9h1.04v9Zm-1.22-12.5c0-.2.074-.36.22-.48.147-.12.32-.18.52-.18.174 0 .327.0667.46.2.147.12.22.2733.22.46 0 .2267-.066.4067-.2.54-.12.1333-.28.2-.48.2-.213 0-.393-.0667-.54-.2-.133-.1333-.2-.3133-.2-.54Zm3.595 13.82c0-.68.24-1.2533.72-1.72.48-.4667 1.16-.7933 2.04-.98-.2-.24-.3-.5267-.3-.86 0-.3333.113-.6333.34-.9-.587-.2533-1.047-.6333-1.38-1.14-.333-.5067-.5-1.08-.5-1.72 0-.92.327-1.68.98-2.28.653-.6 1.513-.9 2.58-.9.853 0 1.607.2267 2.26.68h.02l2.56-.68v.98l-1.82.46c.36.5467.54 1.1267.54 1.74 0 .8933-.333 1.6533-1 2.28-.667.6-1.52.9-2.56.9-.373 0-.673-.0267-.9-.08-.12.1733-.18.3933-.18.66 0 .3067.087.5467.26.72.507-.0267.787-.04.84-.04 1.373 0 2.467.2533 3.28.76.813.5067 1.22 1.2133 1.22 2.12 0 .8933-.407 1.5867-1.22 2.08-.813.5067-1.907.76-3.28.76-1.387 0-2.487-.2467-3.3-.74-.8-.4933-1.2-1.1933-1.2-2.1Zm1.06 0c0 .5867.307 1.0467.92 1.38.627.3467 1.467.52 2.52.52 1.04 0 1.873-.1733 2.5-.52s.94-.8067.94-1.38c0-.5867-.313-1.0533-.94-1.4-.613-.36-1.447-.54-2.5-.54-1.04 0-1.873.1733-2.5.52s-.94.82-.94 1.42Zm1.62-8.92c-.467.4267-.7.96-.7 1.6 0 .64.233 1.1733.7 1.6.467.4267 1.067.64 1.8.64.733 0 1.333-.2133 1.8-.64.467-.4267.7-.96.7-1.6 0-.64-.24-1.1733-.72-1.6-.467-.4267-1.06-.64-1.78-.64-.707 0-1.307.2133-1.8.64Zm9.465 7.6h-1.04v-9h1.04v1.26c.373-.4133.853-.7533 1.44-1.02.6-.2667 1.2-.4 1.8-.4 1.253 0 2.193.3267 2.82.98.626.6533.94 1.6667.94 3.04V55h-1.04v-4.94c0-2.16-.987-3.24-2.96-3.24-.574 0-1.134.1333-1.68.4-.547.2533-.987.58-1.32.98V55Z" fill="#fff"/>
  <path d="M86.85 25.965V30h-1.275V19.5c.42 0 .865-.005 1.335-.015.47-.01.94-.015 1.41-.015 1.38 0 2.37.31 2.97.93.61.61.915 1.385.915 2.325 0 .91-.33 1.69-.99 2.34-.64.64-1.57.96-2.79.96-.64 0-1.165-.02-1.575-.06Zm1.59-5.295c-.18 0-.71.01-1.59.03v4.05c.63.05 1.14.075 1.53.075.77 0 1.375-.185 1.815-.555.44-.38.66-.9.66-1.56 0-.65-.205-1.15-.615-1.5-.4-.36-1-.54-1.8-.54Zm5.3203 4.005-.315-.96c.67-.41 1.42-.615 2.25-.615.91 0 1.57.225 1.98.675.41.45.615 1.145.615 2.085V30h-1.14v-.87c-.53.65-1.25.975-2.16.975-.62 0-1.12-.185-1.5-.555-.38-.38-.57-.89-.57-1.53 0-.66.235-1.18.705-1.56.47-.39 1.085-.585 1.845-.585.71 0 1.27.145 1.68.435 0-.76-.105-1.305-.315-1.635-.21-.33-.615-.495-1.215-.495-.61 0-1.23.165-1.86.495Zm1.65 4.35c.67 0 1.25-.29 1.74-.87V27.3c-.42-.3-.925-.45-1.515-.45-.41 0-.755.1-1.035.3-.27.19-.405.46-.405.81 0 .33.105.59.315.78.22.19.52.285.9.285Zm7.1247 1.125c-.51 0-1.05-.085-1.62-.255-.55-.18-.9403-.4-1.1703-.66l.6153-.9c.27.22.59.4.96.54.38.13.725.195 1.035.195.52 0 .945-.1 1.275-.3.33-.21.495-.48.495-.81 0-.28-.12-.495-.36-.645-.23-.15-.55-.225-.96-.225h-1.14v-.975h1.065c.34 0 .62-.09.84-.27.22-.19.33-.42.33-.69 0-.3-.13-.535-.39-.705-.26-.18-.61-.27-1.05-.27-.71 0-1.385.25-2.025.75l-.4653-.93c.2703-.28.6453-.5 1.1253-.66.49-.16 1.005-.24 1.545-.24.8 0 1.42.16 1.86.48.45.32.675.765.675 1.335 0 .78-.395 1.31-1.185 1.59v.03c.44.05.785.225 1.035.525.25.29.375.645.375 1.065 0 .62-.265 1.115-.795 1.485-.52.36-1.21.54-2.07.54Zm5.893 2.85h-1.2v-9.75h1.2v.795c.24-.28.57-.505.99-.675.42-.18.855-.27 1.305-.27.96 0 1.715.32 2.265.96.57.63.855 1.45.855 2.46 0 1.03-.325 1.895-.975 2.595-.64.69-1.485 1.035-2.535 1.035-.81 0-1.445-.155-1.905-.465V33Zm1.95-8.775c-.8 0-1.45.31-1.95.93V28.5c.53.35 1.13.525 1.8.525.71 0 1.275-.225 1.695-.675.43-.46.645-1.055.645-1.785 0-.71-.195-1.275-.585-1.695-.39-.43-.925-.645-1.605-.645Zm5.545.45-.315-.96c.67-.41 1.42-.615 2.25-.615.91 0 1.57.225 1.98.675.41.45.615 1.145.615 2.085V30h-1.14v-.87c-.53.65-1.25.975-2.16.975-.62 0-1.12-.185-1.5-.555-.38-.38-.57-.89-.57-1.53 0-.66.235-1.18.705-1.56.47-.39 1.085-.585 1.845-.585.71 0 1.27.145 1.68.435 0-.76-.105-1.305-.315-1.635-.21-.33-.615-.495-1.215-.495-.61 0-1.23.165-1.86.495Zm1.65 4.35c.67 0 1.25-.29 1.74-.87V27.3c-.42-.3-.925-.45-1.515-.45-.41 0-.755.1-1.035.3-.27.19-.405.46-.405.81 0 .33.105.59.315.78.22.19.52.285.9.285Zm10.11-9.675.645.945c-.24.33-.53.555-.87.675-.37.13-.79.23-1.26.3-.46.07-.895.195-1.305.375-1.02.47-1.59 1.555-1.71 3.255h.03c.22-.47.575-.85 1.065-1.14.5-.29 1.035-.435 1.605-.435.96 0 1.72.305 2.28.915.57.61.855 1.425.855 2.445 0 .96-.325 1.78-.975 2.46-.64.67-1.47 1.005-2.49 1.005-1.1 0-1.97-.375-2.61-1.125-.64-.74-.96-1.765-.96-3.075 0-2.92.835-4.735 2.505-5.445.38-.17.82-.295 1.32-.375.39-.07.67-.125.84-.165.17-.04.35-.11.54-.21.2-.1.365-.235.495-.405Zm-4.425 6.825c0 .86.21 1.55.63 2.07.42.52.965.78 1.635.78.65 0 1.18-.22 1.59-.66.42-.43.63-.97.63-1.62 0-.69-.195-1.245-.585-1.665-.38-.42-.905-.63-1.575-.63-.61 0-1.12.17-1.53.51-.43.35-.695.755-.795 1.215Zm8.021 2.985c-.66-.68-.99-1.525-.99-2.535 0-1.02.33-1.86.99-2.52.67-.67 1.54-1.005 2.61-1.005 1.07 0 1.935.335 2.595 1.005.67.66 1.005 1.5 1.005 2.52s-.335 1.865-1.005 2.535c-.66.66-1.525.99-2.595.99-1.06 0-1.93-.33-2.61-.99Zm.945-4.26c-.44.44-.66 1.015-.66 1.725 0 .71.215 1.285.645 1.725.44.45 1 .675 1.68.675.68 0 1.235-.22 1.665-.66.44-.45.66-1.03.66-1.74 0-.69-.22-1.265-.66-1.725-.43-.45-.985-.675-1.665-.675s-1.235.225-1.665.675Zm8.353-.45h-2.475v-1.2h6.15v1.2h-2.475V30h-1.2v-5.55Zm5.346.225-.315-.96c.67-.41 1.42-.615 2.25-.615.91 0 1.57.225 1.98.675.41.45.615 1.145.615 2.085V30h-1.14v-.87c-.53.65-1.25.975-2.16.975-.62 0-1.12-.185-1.5-.555-.38-.38-.57-.89-.57-1.53 0-.66.235-1.18.705-1.56.47-.39 1.085-.585 1.845-.585.71 0 1.27.145 1.68.435 0-.76-.105-1.305-.315-1.635-.21-.33-.615-.495-1.215-.495-.61 0-1.23.165-1.86.495Zm1.65 4.35c.67 0 1.25-.29 1.74-.87V27.3c-.42-.3-.925-.45-1.515-.45-.41 0-.755.1-1.035.3-.27.19-.405.46-.405.81 0 .33.105.59.315.78.22.19.52.285.9.285Zm11.04.975h-1.2v-2.85h-3.75V30h-1.2v-6.75h1.2v2.775h3.75V23.25h1.2V30Zm2.71-.84c-.66-.68-.99-1.525-.99-2.535 0-1.02.33-1.86.99-2.52.67-.67 1.54-1.005 2.61-1.005 1.07 0 1.935.335 2.595 1.005.67.66 1.005 1.5 1.005 2.52s-.335 1.865-1.005 2.535c-.66.66-1.525.99-2.595.99-1.06 0-1.93-.33-2.61-.99Zm.945-4.26c-.44.44-.66 1.015-.66 1.725 0 .71.215 1.285.645 1.725.44.45 1 .675 1.68.675.68 0 1.235-.22 1.665-.66.44-.45.66-1.03.66-1.74 0-.69-.22-1.265-.66-1.725-.43-.45-.985-.675-1.665-.675s-1.235.225-1.665.675Z" fill="#A9A9AA"/>
  <defs>
    <filter id="filter0_d_241_956" x=".242676" y=".242676" width="85.5146" height="85.5146" filterUnits="userSpaceOnUse" color-interpolation-filters="sRGB">
      <feFlood flood-opacity="0" result="BackgroundImageFix"/>
      <feColorMatrix in="SourceAlpha" values="0 0 0 0 0 0 0 0 0 0 0 0 0 0 0 0 0 0 127 0" result="hardAlpha"/>
      <feMorphology radius="2" operator="dilate" in="SourceAlpha" result="effect1_dropShadow_241_956"/>
      <feOffset dy="4"/>
      <feGaussianBlur stdDeviation="10"/>
      <feColorMatrix values="0 0 0 0 0.279167 0 0 0 0 0.279167 0 0 0 0 0.279167 0 0 0 0.25 0"/>
      <feBlend in2="BackgroundImageFix" result="effect1_dropShadow_241_956"/>
      <feBlend in="SourceGraphic" in2="effect1_dropShadow_241_956" result="shape"/>
    </filter>
  </defs>
</svg>